<svg width="128" height="128" viewBox="0 0 128 128" fill="none" xmlns="http://www.w3.org/2000/svg">
<g id="square-white-128">
<path id="logo" d="M116.198 72.2712C122.601 68.5939 122.601 59.4062 116.198 55.7288L21.4169 1.29546C15.0105 -2.38379 7.00001 2.21196 7 9.56668L7 86.2564L25.2271 96.6223L43.1189 86.4593V37.9779C43.1189 35.6783 44.3557 33.5541 46.3617 32.4085C48.3676 31.2629 50.8366 31.2707 52.8352 32.429L97.7353 58.4511C99.7247 59.604 100.947 61.7224 100.942 64.0115C100.938 66.3007 99.7089 68.4146 97.7153 69.5605L73.3598 83.5597C70.2705 85.3355 66.3179 84.2855 64.5315 81.2145C62.7451 78.1435 63.8014 74.2145 66.8908 72.4387L81.6121 63.9771L56.0422 49.1579V90.1868C56.0422 92.4918 54.7998 94.6201 52.7865 95.7636L28.431 109.598C26.4435 110.727 24.0033 110.727 22.0164 109.597L7 101.057L7 118.433C7 125.788 15.0105 130.384 21.4169 126.705L116.198 72.2712Z" fill="white"/>
</g>
</svg>
