<?xml version="1.0" encoding="UTF-8"?>
<svg xmlns="http://www.w3.org/2000/svg" xmlns:xlink="http://www.w3.org/1999/xlink" width="48px" height="48px" viewBox="0 0 48 48" version="1.1">
<defs>
<linearGradient id="linear0" gradientUnits="userSpaceOnUse" x1="63.299999" y1="84" x2="241.699997" y2="84" gradientTransform="matrix(0.1875,0,0,-0.1875,-0.8625,48.9375)">
<stop offset="0" style="stop-color:rgb(4.705882%,34.901961%,64.313725%);stop-opacity:1;"/>
<stop offset="1" style="stop-color:rgb(6.666667%,29.019608%,54.509804%);stop-opacity:1;"/>
</linearGradient>
<filter id="alpha" filterUnits="objectBoundingBox" x="0%" y="0%" width="100%" height="100%">
  <feColorMatrix type="matrix" in="SourceGraphic" values="0 0 0 0 1 0 0 0 0 1 0 0 0 0 1 0 0 0 1 0"/>
</filter>
<mask id="mask0">
  <g filter="url(#alpha)">
<rect x="0" y="0" width="48" height="48" style="fill:rgb(0%,0%,0%);fill-opacity:0.34902;stroke:none;"/>
  </g>
</mask>
<radialGradient id="radial0" gradientUnits="userSpaceOnUse" cx="161.800003" cy="68.900002" fx="161.800003" fy="68.900002" r="95.400002" gradientTransform="matrix(0.1875,0,0,-0.178125,-0.8625,45.712501)">
<stop offset="0.7" style="stop-color:rgb(0%,0%,0%);stop-opacity:0;"/>
<stop offset="0.9" style="stop-color:rgb(0%,0%,0%);stop-opacity:0.501961;"/>
<stop offset="1" style="stop-color:rgb(0%,0%,0%);stop-opacity:1;"/>
</radialGradient>
<clipPath id="clip1">
  <rect x="0" y="0" width="48" height="48"/>
</clipPath>
<g id="surface5" clip-path="url(#clip1)">
<path style=" stroke:none;fill-rule:nonzero;fill:url(#radial0);" d="M 43.332031 35.71875 C 42.6875 36.054688 42.023438 36.347656 41.34375 36.601562 C 39.191406 37.402344 36.910156 37.808594 34.613281 37.800781 C 25.742188 37.800781 18.019531 31.707031 18.019531 23.867188 C 18.042969 21.730469 19.21875 19.773438 21.09375 18.75 C 13.070312 19.085938 11.007812 27.449219 11.007812 32.34375 C 11.007812 46.21875 23.773438 47.605469 26.53125 47.605469 C 28.011719 47.605469 30.242188 47.175781 31.59375 46.742188 L 31.835938 46.667969 C 37.003906 44.882812 41.40625 41.390625 44.324219 36.769531 C 44.5 36.480469 44.460938 36.109375 44.226562 35.867188 C 43.996094 35.621094 43.628906 35.5625 43.332031 35.71875 Z M 43.332031 35.71875 "/>
</g>
<linearGradient id="linear1" gradientUnits="userSpaceOnUse" x1="157.300003" y1="161.399994" x2="46" y2="40.099998" gradientTransform="matrix(0.1875,0,0,-0.1875,-0.8625,48.9375)">
<stop offset="0" style="stop-color:rgb(10.588235%,61.568627%,88.627451%);stop-opacity:1;"/>
<stop offset="0.2" style="stop-color:rgb(8.235294%,58.431373%,87.45098%);stop-opacity:1;"/>
<stop offset="0.7" style="stop-color:rgb(2.352941%,50.196078%,84.313725%);stop-opacity:1;"/>
<stop offset="1" style="stop-color:rgb(0%,47.058824%,83.137255%);stop-opacity:1;"/>
</linearGradient>
<mask id="mask1">
  <g filter="url(#alpha)">
<rect x="0" y="0" width="48" height="48" style="fill:rgb(0%,0%,0%);fill-opacity:0.411765;stroke:none;"/>
  </g>
</mask>
<radialGradient id="radial1" gradientUnits="userSpaceOnUse" cx="-340.299988" cy="63" fx="-340.299988" fy="63" r="143.199997" gradientTransform="matrix(0.028125,-0.185625,-0.15,-0.0225,32.250001,-24.45)">
<stop offset="0.8" style="stop-color:rgb(0%,0%,0%);stop-opacity:0;"/>
<stop offset="0.9" style="stop-color:rgb(0%,0%,0%);stop-opacity:0.501961;"/>
<stop offset="1" style="stop-color:rgb(0%,0%,0%);stop-opacity:1;"/>
</radialGradient>
<clipPath id="clip2">
  <rect x="0" y="0" width="48" height="48"/>
</clipPath>
<g id="surface8" clip-path="url(#clip2)">
<path style=" stroke:none;fill-rule:nonzero;fill:url(#radial1);" d="M 19.820312 45.242188 C 18.148438 44.207031 16.703125 42.851562 15.5625 41.25 C 12.925781 37.640625 12.019531 33.050781 13.085938 28.710938 C 14.152344 24.371094 17.085938 20.726562 21.09375 18.75 C 21.695312 18.46875 22.6875 17.980469 24.019531 18 C 25.917969 18.015625 27.699219 18.917969 28.835938 20.4375 C 29.59375 21.453125 30.003906 22.679688 30.019531 23.945312 C 30.019531 23.90625 34.613281 9.019531 15.019531 9.019531 C 6.789062 9.019531 0.0195312 16.820312 0.0195312 23.679688 C -0.015625 27.304688 0.761719 30.894531 2.289062 34.179688 C 7.460938 45.199219 20.066406 50.597656 31.613281 46.742188 C 27.65625 47.992188 23.351562 47.445312 19.835938 45.242188 Z M 19.820312 45.242188 "/>
</g>
<radialGradient id="radial2" gradientUnits="userSpaceOnUse" cx="113.400002" cy="570.200012" fx="113.400002" fy="570.200012" r="202.399994" gradientTransform="matrix(-0.0075,0.1875,0.399375,0.015,-222.01875,-20.943749)">
<stop offset="0" style="stop-color:rgb(20.784314%,75.686275%,94.509804%);stop-opacity:1;"/>
<stop offset="0.1" style="stop-color:rgb(20.392157%,75.686275%,92.941176%);stop-opacity:1;"/>
<stop offset="0.2" style="stop-color:rgb(18.431373%,76.078431%,87.45098%);stop-opacity:1;"/>
<stop offset="0.3" style="stop-color:rgb(16.862745%,76.470588%,82.352941%);stop-opacity:1;"/>
<stop offset="0.7" style="stop-color:rgb(21.176471%,78.039216%,32.156863%);stop-opacity:1;"/>
</radialGradient>
<radialGradient id="radial3" gradientUnits="userSpaceOnUse" cx="376.5" cy="568" fx="376.5" fy="568" r="97.300003" gradientTransform="matrix(0.0525,0.18,0.14625,-0.043125,-57.824998,-28.78125)">
<stop offset="0" style="stop-color:rgb(40%,92.156863%,43.137255%);stop-opacity:1;"/>
<stop offset="1" style="stop-color:rgb(40%,92.156863%,43.137255%);stop-opacity:0;"/>
</radialGradient>
</defs>
<g id="surface1">
<path style=" stroke:none;fill-rule:nonzero;fill:url(#linear0);" d="M 43.332031 35.71875 C 42.6875 36.054688 42.023438 36.347656 41.34375 36.601562 C 39.191406 37.402344 36.910156 37.808594 34.613281 37.800781 C 25.742188 37.800781 18.019531 31.707031 18.019531 23.867188 C 18.042969 21.730469 19.21875 19.773438 21.09375 18.75 C 13.070312 19.085938 11.007812 27.449219 11.007812 32.34375 C 11.007812 46.21875 23.773438 47.605469 26.53125 47.605469 C 28.011719 47.605469 30.242188 47.175781 31.59375 46.742188 L 31.835938 46.667969 C 37.003906 44.882812 41.40625 41.390625 44.324219 36.769531 C 44.5 36.480469 44.460938 36.109375 44.226562 35.867188 C 43.996094 35.621094 43.628906 35.5625 43.332031 35.71875 Z M 43.332031 35.71875 "/>
<use xlink:href="#surface5" mask="url(#mask0)"/>
<path style=" stroke:none;fill-rule:nonzero;fill:url(#linear1);" d="M 19.820312 45.242188 C 18.148438 44.207031 16.703125 42.851562 15.5625 41.25 C 12.925781 37.640625 12.019531 33.050781 13.085938 28.710938 C 14.152344 24.371094 17.085938 20.726562 21.09375 18.75 C 21.695312 18.46875 22.6875 17.980469 24.019531 18 C 25.917969 18.015625 27.699219 18.917969 28.835938 20.4375 C 29.59375 21.453125 30.003906 22.679688 30.019531 23.945312 C 30.019531 23.90625 34.613281 9.019531 15.019531 9.019531 C 6.789062 9.019531 0.0195312 16.820312 0.0195312 23.679688 C -0.015625 27.304688 0.761719 30.894531 2.289062 34.179688 C 7.460938 45.199219 20.066406 50.597656 31.613281 46.742188 C 27.65625 47.992188 23.351562 47.445312 19.835938 45.242188 Z M 19.820312 45.242188 "/>
<use xlink:href="#surface8" mask="url(#mask1)"/>
<path style=" stroke:none;fill-rule:nonzero;fill:url(#radial2);" d="M 28.574219 27.898438 C 28.40625 28.085938 27.9375 28.367188 27.9375 28.949219 C 27.9375 29.4375 28.257812 29.925781 28.835938 30.320312 C 31.519531 32.195312 36.601562 31.929688 36.617188 31.929688 C 38.617188 31.929688 40.578125 31.390625 42.300781 30.375 C 45.824219 28.3125 47.992188 24.539062 48 20.457031 C 48.054688 16.257812 46.5 13.460938 45.882812 12.226562 C 41.886719 4.460938 33.320312 0 24 0 C 10.875 0 0.183594 10.539062 0 23.664062 C 0.09375 16.820312 6.898438 11.289062 15 11.289062 C 15.65625 11.289062 19.40625 11.34375 22.875 13.164062 C 25.3125 14.375 27.328125 16.285156 28.667969 18.65625 C 29.8125 20.644531 30.019531 23.175781 30.019531 24.1875 C 30.019531 25.199219 29.511719 26.679688 28.554688 27.917969 Z M 28.574219 27.898438 "/>
<path style=" stroke:none;fill-rule:nonzero;fill:url(#radial3);" d="M 28.574219 27.898438 C 28.40625 28.085938 27.9375 28.367188 27.9375 28.949219 C 27.9375 29.4375 28.257812 29.925781 28.835938 30.320312 C 31.519531 32.195312 36.601562 31.929688 36.617188 31.929688 C 38.617188 31.929688 40.578125 31.390625 42.300781 30.375 C 45.824219 28.3125 47.992188 24.539062 48 20.457031 C 48.054688 16.257812 46.5 13.460938 45.882812 12.226562 C 41.886719 4.460938 33.320312 0 24 0 C 10.875 0 0.183594 10.539062 0 23.664062 C 0.09375 16.820312 6.898438 11.289062 15 11.289062 C 15.65625 11.289062 19.40625 11.34375 22.875 13.164062 C 25.3125 14.375 27.328125 16.285156 28.667969 18.65625 C 29.8125 20.644531 30.019531 23.175781 30.019531 24.1875 C 30.019531 25.199219 29.511719 26.679688 28.554688 27.917969 Z M 28.574219 27.898438 "/>
</g>
</svg>
