<?xml version="1.0" encoding="UTF-8"?>
<svg xmlns="http://www.w3.org/2000/svg" xmlns:xlink="http://www.w3.org/1999/xlink" width="48px" height="48px" viewBox="0 0 48 48" version="1.1">
<defs>
<linearGradient id="linear0" gradientUnits="userSpaceOnUse" x1="70.790001" y1="12.39" x2="6.447" y2="74.470001" gradientTransform="matrix(0.612146,0,0,0.589191,-0.360994,0.429547)">
<stop offset="0.048" style="stop-color:rgb(100%,95.686275%,30.980392%);stop-opacity:1;"/>
<stop offset="0.111" style="stop-color:rgb(100%,90.980392%,27.843137%);stop-opacity:1;"/>
<stop offset="0.225" style="stop-color:rgb(100%,78.431373%,18.823529%);stop-opacity:1;"/>
<stop offset="0.368" style="stop-color:rgb(100%,59.607843%,5.490196%);stop-opacity:1;"/>
<stop offset="0.401" style="stop-color:rgb(100%,54.509804%,8.627451%);stop-opacity:1;"/>
<stop offset="0.462" style="stop-color:rgb(100%,40.392157%,16.470588%);stop-opacity:1;"/>
<stop offset="0.534" style="stop-color:rgb(100%,21.176471%,27.843137%);stop-opacity:1;"/>
<stop offset="0.705" style="stop-color:rgb(89.019608%,8.235294%,52.941176%);stop-opacity:1;"/>
</linearGradient>
<radialGradient id="radial0" gradientUnits="userSpaceOnUse" cx="-7907" cy="-8515" fx="-7907" fy="-8515" r="80.800003" gradientTransform="matrix(0.612146,0,0,0.589191,4881.687541,5022.692547)">
<stop offset="0.129" style="stop-color:rgb(100%,74.117647%,30.980392%);stop-opacity:1;"/>
<stop offset="0.186" style="stop-color:rgb(100%,67.45098%,19.215686%);stop-opacity:1;"/>
<stop offset="0.247" style="stop-color:rgb(100%,61.568627%,9.019608%);stop-opacity:1;"/>
<stop offset="0.283" style="stop-color:rgb(100%,59.607843%,5.490196%);stop-opacity:1;"/>
<stop offset="0.403" style="stop-color:rgb(100%,33.72549%,23.137255%);stop-opacity:1;"/>
<stop offset="0.467" style="stop-color:rgb(100%,21.568627%,31.372549%);stop-opacity:1;"/>
<stop offset="0.71" style="stop-color:rgb(96.078431%,8.235294%,42.352941%);stop-opacity:1;"/>
<stop offset="0.782" style="stop-color:rgb(92.156863%,3.137255%,47.058824%);stop-opacity:1;"/>
<stop offset="0.86" style="stop-color:rgb(89.803922%,0%,50.196078%);stop-opacity:1;"/>
</radialGradient>
<radialGradient id="radial1" gradientUnits="userSpaceOnUse" cx="-7937" cy="-8482" fx="-7937" fy="-8482" r="80.800003" gradientTransform="matrix(0.612146,0,0,0.589191,4881.687541,5022.692547)">
<stop offset="0.3" style="stop-color:rgb(58.823529%,5.490196%,9.411765%);stop-opacity:1;"/>
<stop offset="0.351" style="stop-color:rgb(69.411765%,9.803922%,15.294118%);stop-opacity:0.741176;"/>
<stop offset="0.435" style="stop-color:rgb(85.882353%,16.078431%,23.921569%);stop-opacity:0.341176;"/>
<stop offset="0.497" style="stop-color:rgb(96.078431%,20%,29.411765%);stop-opacity:0.0941176;"/>
<stop offset="0.53" style="stop-color:rgb(100%,21.568627%,31.372549%);stop-opacity:0;"/>
</radialGradient>
<radialGradient id="radial2" gradientUnits="userSpaceOnUse" cx="-7927" cy="-8533" fx="-7927" fy="-8533" r="58.529999" gradientTransform="matrix(0.612146,0,0,0.589191,4881.687541,5022.692547)">
<stop offset="0.132" style="stop-color:rgb(100%,95.686275%,30.980392%);stop-opacity:1;"/>
<stop offset="0.252" style="stop-color:rgb(100%,86.27451%,24.313725%);stop-opacity:1;"/>
<stop offset="0.506" style="stop-color:rgb(100%,61.568627%,7.058824%);stop-opacity:1;"/>
<stop offset="0.526" style="stop-color:rgb(100%,59.607843%,5.490196%);stop-opacity:1;"/>
</radialGradient>
<radialGradient id="radial3" gradientUnits="userSpaceOnUse" cx="-7946" cy="-8461" fx="-7946" fy="-8461" r="38.470001" gradientTransform="matrix(0.612146,0,0,0.589191,4881.687541,5022.692547)">
<stop offset="0.353" style="stop-color:rgb(22.745098%,55.686275%,90.196078%);stop-opacity:1;"/>
<stop offset="0.472" style="stop-color:rgb(36.078431%,47.45098%,94.117647%);stop-opacity:1;"/>
<stop offset="0.669" style="stop-color:rgb(56.470588%,34.901961%,100%);stop-opacity:1;"/>
<stop offset="1" style="stop-color:rgb(75.686275%,22.352941%,90.196078%);stop-opacity:1;"/>
</radialGradient>
<radialGradient id="radial4" gradientUnits="userSpaceOnUse" cx="-7936" cy="-8492" fx="-7936" fy="-8492" r="20.4" gradientTransform="matrix(0.595006,-0.13846,0.16834,0.670499,6176.988621,4616.151039)">
<stop offset="0.206" style="stop-color:rgb(56.470588%,34.901961%,100%);stop-opacity:0;"/>
<stop offset="0.278" style="stop-color:rgb(54.901961%,30.980392%,95.294118%);stop-opacity:0.0627451;"/>
<stop offset="0.747" style="stop-color:rgb(46.666667%,8.627451%,65.882353%);stop-opacity:0.45098;"/>
<stop offset="0.975" style="stop-color:rgb(43.137255%,0%,54.509804%);stop-opacity:0.6;"/>
</radialGradient>
<radialGradient id="radial5" gradientUnits="userSpaceOnUse" cx="-7938" cy="-8518" fx="-7938" fy="-8518" r="27.68" gradientTransform="matrix(0.612146,0,0,0.589191,4881.687541,5022.692547)">
<stop offset="0" style="stop-color:rgb(100%,88.627451%,14.901961%);stop-opacity:1;"/>
<stop offset="0.121" style="stop-color:rgb(100%,85.882353%,15.294118%);stop-opacity:1;"/>
<stop offset="0.295" style="stop-color:rgb(100%,78.431373%,16.470588%);stop-opacity:1;"/>
<stop offset="0.502" style="stop-color:rgb(100%,66.27451%,18.823529%);stop-opacity:1;"/>
<stop offset="0.732" style="stop-color:rgb(100%,49.411765%,21.568627%);stop-opacity:1;"/>
<stop offset="0.792" style="stop-color:rgb(100%,44.313725%,22.352941%);stop-opacity:1;"/>
</radialGradient>
<radialGradient id="radial6" gradientUnits="userSpaceOnUse" cx="-7916" cy="-8536" fx="-7916" fy="-8536" r="118.099998" gradientTransform="matrix(0.612146,0,0,0.589191,4881.687541,5022.692547)">
<stop offset="0.113" style="stop-color:rgb(100%,95.686275%,30.980392%);stop-opacity:1;"/>
<stop offset="0.456" style="stop-color:rgb(100%,59.607843%,5.490196%);stop-opacity:1;"/>
<stop offset="0.622" style="stop-color:rgb(100%,33.72549%,20.392157%);stop-opacity:1;"/>
<stop offset="0.716" style="stop-color:rgb(100%,21.176471%,27.843137%);stop-opacity:1;"/>
<stop offset="0.904" style="stop-color:rgb(89.019608%,8.235294%,52.941176%);stop-opacity:1;"/>
</radialGradient>
<radialGradient id="radial7" gradientUnits="userSpaceOnUse" cx="-7927" cy="-8523" fx="-7927" fy="-8523" r="86.5" gradientTransform="matrix(0.0642753,0.586245,-0.399731,0.0406541,-2867.469532,4990.876255)">
<stop offset="0" style="stop-color:rgb(100%,95.686275%,30.980392%);stop-opacity:1;"/>
<stop offset="0.06" style="stop-color:rgb(100%,90.980392%,27.843137%);stop-opacity:1;"/>
<stop offset="0.168" style="stop-color:rgb(100%,78.431373%,18.823529%);stop-opacity:1;"/>
<stop offset="0.304" style="stop-color:rgb(100%,59.607843%,5.490196%);stop-opacity:1;"/>
<stop offset="0.356" style="stop-color:rgb(100%,54.509804%,8.627451%);stop-opacity:1;"/>
<stop offset="0.455" style="stop-color:rgb(100%,40.392157%,16.470588%);stop-opacity:1;"/>
<stop offset="0.57" style="stop-color:rgb(100%,21.176471%,27.843137%);stop-opacity:1;"/>
<stop offset="0.737" style="stop-color:rgb(89.019608%,8.235294%,52.941176%);stop-opacity:1;"/>
</radialGradient>
<radialGradient id="radial8" gradientUnits="userSpaceOnUse" cx="-7938" cy="-8508" fx="-7938" fy="-8508" r="73.720001" gradientTransform="matrix(0.612146,0,0,0.589191,4881.687541,5022.692547)">
<stop offset="0.137" style="stop-color:rgb(100%,95.686275%,30.980392%);stop-opacity:1;"/>
<stop offset="0.48" style="stop-color:rgb(100%,59.607843%,5.490196%);stop-opacity:1;"/>
<stop offset="0.592" style="stop-color:rgb(100%,33.72549%,20.392157%);stop-opacity:1;"/>
<stop offset="0.655" style="stop-color:rgb(100%,21.176471%,27.843137%);stop-opacity:1;"/>
<stop offset="0.904" style="stop-color:rgb(89.019608%,8.235294%,52.941176%);stop-opacity:1;"/>
</radialGradient>
<radialGradient id="radial9" gradientUnits="userSpaceOnUse" cx="-7919" cy="-8504" fx="-7919" fy="-8504" r="80.690002" gradientTransform="matrix(0.612146,0,0,0.589191,4881.687541,5022.692547)">
<stop offset="0.094" style="stop-color:rgb(100%,95.686275%,30.980392%);stop-opacity:1;"/>
<stop offset="0.231" style="stop-color:rgb(100%,88.235294%,25.490196%);stop-opacity:1;"/>
<stop offset="0.509" style="stop-color:rgb(100%,68.627451%,11.764706%);stop-opacity:1;"/>
<stop offset="0.626" style="stop-color:rgb(100%,59.607843%,5.490196%);stop-opacity:1;"/>
</radialGradient>
<linearGradient id="linear1" gradientUnits="userSpaceOnUse" x1="70.010002" y1="12.06" x2="15.27" y2="66.809998" gradientTransform="matrix(0.612146,0,0,0.589191,-0.360994,0.429547)">
<stop offset="0.167" style="stop-color:rgb(100%,95.686275%,30.980392%);stop-opacity:0.8;"/>
<stop offset="0.266" style="stop-color:rgb(100%,95.686275%,30.980392%);stop-opacity:0.635294;"/>
<stop offset="0.489" style="stop-color:rgb(100%,95.686275%,30.980392%);stop-opacity:0.215686;"/>
<stop offset="0.6" style="stop-color:rgb(100%,95.686275%,30.980392%);stop-opacity:0;"/>
</linearGradient>
</defs>
<g id="surface1">
<path style=" stroke:none;fill-rule:nonzero;fill:url(#linear0);" d="M 46.113281 16.238281 C 45.082031 13.851562 42.992188 11.273438 41.355469 10.460938 C 42.519531 12.636719 43.332031 14.972656 43.757812 17.390625 L 43.761719 17.425781 C 41.078125 10.992188 36.53125 8.394531 32.816406 2.746094 C 32.628906 2.457031 32.441406 2.171875 32.257812 1.871094 C 32.152344 1.699219 32.066406 1.542969 31.996094 1.398438 C 31.839844 1.113281 31.722656 0.808594 31.640625 0.496094 C 31.539062 0.433594 31.535156 0.441406 31.53125 0.441406 C 31.527344 0.441406 31.519531 0.449219 31.515625 0.449219 L 31.523438 0.433594 C 25.5625 3.792969 23.539062 10.011719 23.355469 13.121094 C 20.976562 13.277344 18.699219 14.121094 16.824219 15.542969 C 16.628906 15.382812 16.425781 15.234375 16.214844 15.097656 C 15.671875 13.273438 15.648438 11.347656 16.148438 9.515625 C 13.957031 10.535156 12.011719 11.980469 10.4375 13.761719 L 10.425781 13.761719 C 9.484375 12.617188 9.550781 8.832031 9.605469 8.042969 C 9.328125 8.152344 9.0625 8.285156 8.8125 8.449219 C 7.984375 9.019531 7.207031 9.65625 6.492188 10.359375 C 5.679688 11.152344 4.941406 12.007812 4.277344 12.921875 L 4.277344 12.925781 L 4.277344 12.921875 C 2.75 15 1.667969 17.351562 1.09375 19.835938 L 1.0625 19.988281 C 1.015625 20.1875 0.855469 21.195312 0.828125 21.414062 C 0.828125 21.429688 0.824219 21.445312 0.824219 21.464844 C 0.613281 22.503906 0.484375 23.554688 0.4375 24.613281 L 0.4375 24.730469 C 0.457031 36.574219 9.886719 46.4375 22.152344 47.445312 C 34.414062 48.449219 45.4375 40.261719 47.542969 28.589844 C 47.582031 28.296875 47.613281 28.003906 47.648438 27.707031 C 48.136719 23.820312 47.609375 19.878906 46.109375 16.238281 Z M 18.769531 34.117188 C 18.878906 34.167969 18.984375 34.222656 19.097656 34.273438 L 19.113281 34.28125 C 19 34.230469 18.882812 34.171875 18.769531 34.117188 Z M 43.761719 17.433594 L 43.761719 17.410156 L 43.765625 17.4375 Z M 43.761719 17.433594 "/>
<path style=" stroke:none;fill-rule:nonzero;fill:url(#radial0);" d="M 46.113281 16.238281 C 45.082031 13.851562 42.992188 11.273438 41.355469 10.460938 C 42.519531 12.636719 43.332031 14.972656 43.757812 17.390625 L 43.757812 17.410156 L 43.761719 17.433594 C 45.589844 22.472656 45.324219 27.996094 43.023438 32.847656 C 40.304688 38.464844 33.722656 44.21875 23.421875 43.9375 C 12.292969 43.632812 2.484375 35.683594 0.65625 25.269531 C 0.320312 23.628906 0.65625 22.796875 0.824219 21.460938 C 0.59375 22.5 0.46875 23.554688 0.441406 24.613281 L 0.441406 24.730469 C 0.464844 36.578125 9.890625 46.441406 22.15625 47.445312 C 34.417969 48.449219 45.445312 40.265625 47.546875 28.59375 C 47.585938 28.296875 47.617188 28.007812 47.65625 27.707031 C 48.144531 23.820312 47.613281 19.878906 46.117188 16.238281 Z M 46.113281 16.238281 "/>
<path style=" stroke:none;fill-rule:nonzero;fill:url(#radial1);" d="M 46.113281 16.238281 C 45.082031 13.851562 42.992188 11.273438 41.355469 10.460938 C 42.519531 12.636719 43.332031 14.972656 43.757812 17.390625 L 43.757812 17.410156 L 43.761719 17.433594 C 45.589844 22.472656 45.324219 27.996094 43.023438 32.847656 C 40.304688 38.464844 33.722656 44.21875 23.421875 43.9375 C 12.292969 43.632812 2.484375 35.683594 0.65625 25.269531 C 0.320312 23.628906 0.65625 22.796875 0.824219 21.460938 C 0.59375 22.5 0.46875 23.554688 0.441406 24.613281 L 0.441406 24.730469 C 0.464844 36.578125 9.890625 46.441406 22.15625 47.445312 C 34.417969 48.449219 45.445312 40.265625 47.546875 28.59375 C 47.585938 28.296875 47.617188 28.007812 47.65625 27.707031 C 48.144531 23.820312 47.613281 19.878906 46.117188 16.238281 Z M 46.113281 16.238281 "/>
<path style=" stroke:none;fill-rule:nonzero;fill:url(#radial2);" d="M 34.582031 18.921875 C 34.632812 18.957031 34.679688 18.992188 34.726562 19.023438 C 34.132812 18.007812 33.390625 17.078125 32.523438 16.257812 C 25.148438 9.160156 30.589844 0.867188 31.507812 0.445312 L 31.519531 0.433594 C 25.558594 3.789062 23.535156 10.007812 23.351562 13.117188 C 23.628906 13.097656 23.902344 13.078125 24.1875 13.078125 C 28.488281 13.085938 32.457031 15.316406 34.582031 18.917969 Z M 34.582031 18.921875 "/>
<path style=" stroke:none;fill-rule:nonzero;fill:url(#radial3);" d="M 24.199219 20.339844 C 24.160156 20.910156 22.074219 22.867188 21.34375 22.867188 C 14.597656 22.867188 13.503906 26.796875 13.503906 26.796875 C 13.800781 30.105469 16.195312 32.828125 19.089844 34.265625 C 19.222656 34.332031 19.359375 34.390625 19.492188 34.449219 C 19.722656 34.550781 19.957031 34.640625 20.1875 34.726562 C 21.183594 35.0625 22.222656 35.257812 23.277344 35.296875 C 35.101562 35.832031 37.390625 21.6875 28.859375 17.582031 C 30.871094 17.328125 32.910156 17.804688 34.578125 18.917969 C 32.457031 15.3125 28.488281 13.082031 24.183594 13.074219 C 23.902344 13.074219 23.628906 13.097656 23.351562 13.117188 C 20.96875 13.273438 18.695312 14.117188 16.820312 15.539062 C 17.179688 15.832031 17.589844 16.226562 18.449219 17.042969 C 20.058594 18.570312 24.1875 20.152344 24.195312 20.335938 Z M 24.199219 20.339844 "/>
<path style=" stroke:none;fill-rule:nonzero;fill:url(#radial4);" d="M 24.199219 20.339844 C 24.160156 20.910156 22.074219 22.867188 21.34375 22.867188 C 14.597656 22.867188 13.503906 26.796875 13.503906 26.796875 C 13.800781 30.105469 16.195312 32.828125 19.089844 34.265625 C 19.222656 34.332031 19.359375 34.390625 19.492188 34.449219 C 19.722656 34.550781 19.957031 34.640625 20.1875 34.726562 C 21.183594 35.0625 22.222656 35.257812 23.277344 35.296875 C 35.101562 35.832031 37.390625 21.6875 28.859375 17.582031 C 30.871094 17.328125 32.910156 17.804688 34.578125 18.917969 C 32.457031 15.3125 28.488281 13.082031 24.183594 13.074219 C 23.902344 13.074219 23.628906 13.097656 23.351562 13.117188 C 20.96875 13.273438 18.695312 14.117188 16.820312 15.539062 C 17.179688 15.832031 17.589844 16.226562 18.449219 17.042969 C 20.058594 18.570312 24.1875 20.152344 24.195312 20.335938 Z M 24.199219 20.339844 "/>
<path style=" stroke:none;fill-rule:nonzero;fill:url(#radial5);" d="M 15.714844 14.785156 C 15.90625 14.902344 16.066406 15.003906 16.203125 15.097656 C 15.664062 13.277344 15.640625 11.347656 16.136719 9.515625 C 13.949219 10.535156 12.003906 11.984375 10.425781 13.765625 C 10.542969 13.761719 13.984375 13.703125 15.714844 14.785156 Z M 15.714844 14.785156 "/>
<path style=" stroke:none;fill-rule:nonzero;fill:url(#radial6);" d="M 0.652344 25.273438 C 2.484375 35.683594 12.289062 43.636719 23.417969 43.9375 C 33.71875 44.21875 40.300781 38.460938 43.019531 32.847656 C 45.320312 27.996094 45.585938 22.472656 43.757812 17.4375 L 43.757812 17.414062 C 43.757812 17.398438 43.753906 17.386719 43.757812 17.390625 L 43.761719 17.429688 C 44.601562 22.71875 41.808594 27.839844 37.4375 31.3125 L 37.421875 31.339844 C 28.910156 38.015625 20.761719 35.367188 19.113281 34.289062 C 19 34.234375 18.882812 34.179688 18.769531 34.121094 C 13.804688 31.839844 11.753906 27.488281 12.195312 23.753906 C 9.789062 23.785156 7.585938 22.453125 6.574219 20.347656 C 9.222656 18.789062 12.527344 18.660156 15.296875 20.011719 C 18.105469 21.238281 21.304688 21.359375 24.203125 20.347656 C 24.195312 20.164062 20.066406 18.582031 18.457031 17.054688 C 17.597656 16.238281 17.1875 15.847656 16.828125 15.550781 C 16.628906 15.390625 16.425781 15.242188 16.214844 15.105469 C 16.074219 15.011719 15.914062 14.914062 15.722656 14.792969 C 13.992188 13.710938 10.550781 13.769531 10.4375 13.773438 L 10.425781 13.773438 C 9.488281 12.625 9.554688 8.84375 9.605469 8.050781 C 9.328125 8.160156 9.0625 8.296875 8.816406 8.457031 C 7.984375 9.027344 7.210938 9.667969 6.496094 10.367188 C 5.679688 11.160156 4.9375 12.015625 4.269531 12.925781 L 4.269531 12.921875 C 2.742188 15.003906 1.664062 17.355469 1.085938 19.839844 C 1.074219 19.886719 0.230469 23.433594 0.648438 25.273438 Z M 0.652344 25.273438 "/>
<path style=" stroke:none;fill-rule:nonzero;fill:url(#radial7);" d="M 32.523438 16.257812 C 33.390625 17.078125 34.132812 18.007812 34.726562 19.027344 C 34.859375 19.121094 34.980469 19.214844 35.082031 19.308594 C 40.460938 24.078125 37.644531 30.824219 37.433594 31.304688 C 41.804688 27.839844 44.59375 22.710938 43.757812 17.421875 C 41.074219 10.980469 36.519531 8.382812 32.8125 2.734375 C 32.625 2.449219 32.4375 2.160156 32.253906 1.859375 C 32.148438 1.6875 32.0625 1.53125 31.992188 1.386719 C 31.835938 1.101562 31.71875 0.796875 31.636719 0.484375 C 31.535156 0.425781 31.53125 0.429688 31.527344 0.429688 C 31.523438 0.433594 31.515625 0.4375 31.511719 0.441406 C 30.59375 0.859375 25.148438 9.152344 32.527344 16.246094 Z M 32.523438 16.257812 "/>
<path style=" stroke:none;fill-rule:nonzero;fill:url(#radial8);" d="M 35.082031 19.308594 C 34.980469 19.21875 34.855469 19.125 34.726562 19.027344 C 34.679688 18.996094 34.628906 18.960938 34.578125 18.925781 C 32.910156 17.8125 30.871094 17.335938 28.859375 17.589844 C 37.390625 21.695312 35.101562 35.835938 23.277344 35.304688 C 22.222656 35.261719 21.183594 35.070312 20.1875 34.730469 C 19.957031 34.648438 19.726562 34.554688 19.492188 34.457031 C 19.359375 34.398438 19.226562 34.339844 19.09375 34.273438 L 19.109375 34.285156 C 20.757812 35.367188 28.902344 38.015625 37.417969 31.335938 L 37.433594 31.308594 C 37.644531 30.832031 40.460938 24.085938 35.082031 19.3125 Z M 35.082031 19.308594 "/>
<path style=" stroke:none;fill-rule:nonzero;fill:url(#radial9);" d="M 13.503906 26.792969 C 13.503906 26.792969 14.597656 22.863281 21.347656 22.863281 C 22.074219 22.863281 24.160156 20.90625 24.199219 20.335938 C 21.296875 21.347656 18.101562 21.226562 15.292969 20 C 12.519531 18.648438 9.21875 18.773438 6.570312 20.335938 C 7.578125 22.441406 9.78125 23.773438 12.1875 23.738281 C 11.75 27.472656 13.800781 31.824219 18.765625 34.109375 C 18.875 34.160156 18.980469 34.214844 19.09375 34.265625 C 16.195312 32.824219 13.804688 30.101562 13.503906 26.792969 Z M 13.503906 26.792969 "/>
<path style=" stroke:none;fill-rule:nonzero;fill:url(#linear1);" d="M 46.113281 16.238281 C 45.082031 13.851562 42.992188 11.273438 41.355469 10.460938 C 42.519531 12.636719 43.332031 14.972656 43.757812 17.390625 L 43.761719 17.425781 C 41.078125 10.992188 36.53125 8.394531 32.816406 2.746094 C 32.628906 2.457031 32.441406 2.171875 32.257812 1.871094 C 32.152344 1.699219 32.066406 1.542969 31.996094 1.398438 C 31.839844 1.113281 31.722656 0.808594 31.640625 0.496094 C 31.539062 0.433594 31.535156 0.441406 31.53125 0.441406 C 31.527344 0.441406 31.519531 0.449219 31.515625 0.449219 L 31.523438 0.433594 C 25.5625 3.792969 23.539062 10.011719 23.355469 13.121094 C 23.632812 13.101562 23.90625 13.082031 24.191406 13.082031 C 28.496094 13.089844 32.464844 15.320312 34.585938 18.921875 C 32.917969 17.8125 30.878906 17.335938 28.863281 17.585938 C 37.398438 21.691406 35.109375 35.832031 23.28125 35.304688 C 22.230469 35.261719 21.1875 35.066406 20.195312 34.730469 C 19.964844 34.644531 19.730469 34.554688 19.5 34.457031 C 19.363281 34.394531 19.230469 34.335938 19.097656 34.273438 L 19.113281 34.28125 C 19 34.230469 18.886719 34.171875 18.769531 34.117188 C 18.878906 34.167969 18.984375 34.222656 19.097656 34.273438 C 16.203125 32.832031 13.808594 30.105469 13.511719 26.800781 C 13.511719 26.800781 14.605469 22.871094 21.351562 22.871094 C 22.082031 22.871094 24.167969 20.914062 24.203125 20.34375 C 24.195312 20.160156 20.066406 18.578125 18.457031 17.050781 C 17.597656 16.234375 17.1875 15.84375 16.828125 15.546875 C 16.632812 15.386719 16.425781 15.238281 16.214844 15.101562 C 15.675781 13.28125 15.652344 11.351562 16.148438 9.519531 C 13.960938 10.539062 12.015625 11.988281 10.4375 13.769531 L 10.425781 13.769531 C 9.484375 12.621094 9.550781 8.839844 9.605469 8.046875 C 9.328125 8.15625 9.0625 8.292969 8.8125 8.453125 C 7.984375 9.023438 7.207031 9.664062 6.496094 10.363281 C 5.683594 11.15625 4.941406 12.015625 4.277344 12.925781 L 4.277344 12.929688 L 4.277344 12.925781 C 2.753906 15.007812 1.671875 17.355469 1.09375 19.84375 L 1.0625 19.992188 C 1.015625 20.195312 0.816406 21.214844 0.789062 21.433594 C 0.605469 22.488281 0.488281 23.550781 0.4375 24.617188 L 0.4375 24.734375 C 0.460938 36.582031 9.890625 46.445312 22.152344 47.449219 C 34.414062 48.453125 45.441406 40.269531 47.542969 28.597656 C 47.582031 28.300781 47.617188 28.011719 47.652344 27.710938 C 48.140625 23.824219 47.609375 19.882812 46.113281 16.242188 Z M 43.757812 17.414062 L 43.765625 17.4375 Z M 43.757812 17.414062 "/>
</g>
</svg>
