<svg width="128" height="128" viewBox="0 0 128 128" fill="none" xmlns="http://www.w3.org/2000/svg">
<rect width="128" height="128" fill="#1E1E1E"/>
<g id="github" clip-path="url(#clip0_0_1)">
<rect width="128" height="128" fill="white"/>
<path id="path" fill-rule="evenodd" clip-rule="evenodd" d="M64.0528 0C28.6332 0 0 29.3331 0 65.6222C0 94.63 18.3463 119.185 43.7976 127.875C46.9796 128.529 48.1452 126.464 48.1452 124.726C48.1452 123.205 48.0402 117.99 48.0402 112.556C30.2223 116.469 26.5119 104.733 26.5119 104.733C23.6485 97.1282 19.4057 95.174 19.4057 95.174C13.5738 91.1539 19.8305 91.1539 19.8305 91.1539C26.2995 91.5886 29.6939 97.8898 29.6939 97.8898C35.4195 107.884 44.6458 105.061 48.3575 103.322C48.8873 99.0844 50.5852 96.1511 52.3879 94.5219C38.1768 93.0006 23.2249 87.3514 23.2249 62.1448C23.2249 54.9742 25.7685 49.1077 29.7989 44.545C29.1629 42.9157 26.9354 36.1784 30.436 27.1611C30.436 27.1611 35.8444 25.4225 48.0389 33.8971C53.2599 32.4607 58.6441 31.7299 64.0528 31.7237C69.4612 31.7237 74.9743 32.4851 80.0653 33.8971C92.2612 25.4225 97.6691 27.1611 97.6691 27.1611C101.17 36.1784 98.9416 42.9157 98.3059 44.545C102.442 49.1077 104.881 54.9742 104.881 62.1448C104.881 87.3514 89.9289 92.8913 75.6116 94.5219C77.9453 96.5863 79.9592 100.497 79.9592 106.69C79.9592 115.49 79.8542 122.552 79.8542 124.725C79.8542 126.464 81.0212 128.529 84.202 127.877C109.653 119.184 128 94.63 128 65.6222C128.104 29.3331 99.3662 0 64.0528 0Z" fill="black"/>
</g>
<defs>
<clipPath id="clip0_0_1">
<rect width="128" height="128" fill="white"/>
</clipPath>
</defs>
</svg>
