<?xml version="1.0" encoding="UTF-8"?>
<svg xmlns="http://www.w3.org/2000/svg" xmlns:xlink="http://www.w3.org/1999/xlink" width="48px" height="48px" viewBox="0 0 48 48" version="1.1">
<g id="surface1">
<path style=" stroke:none;fill-rule:nonzero;fill:rgb(98.039216%,11.764706%,30.588236%);fill-opacity:1;" d="M 38.347656 40.066406 C 35.808594 41.742188 32.910156 42.628906 29.953125 42.628906 C 25.109375 42.628906 20.515625 40.257812 17.355469 36.128906 C 17.34375 36.113281 17.332031 36.101562 17.320312 36.085938 C 14.894531 33.207031 13.445312 28.976562 13.347656 24.507812 L 13.347656 23.457031 C 13.445312 18.960938 14.894531 14.730469 17.355469 11.808594 C 20.515625 7.679688 25.109375 5.3125 29.953125 5.3125 C 32.910156 5.3125 35.8125 6.199219 38.351562 7.875 C 42.878906 11.980469 45.476562 17.839844 45.476562 23.96875 C 45.476562 30.097656 42.878906 35.960938 38.347656 40.066406 M 22.898438 45.613281 C 11.390625 45.070312 2.375 35.5625 2.375 23.96875 C 2.375 12.019531 12.042969 2.300781 23.949219 2.300781 C 23.953125 2.300781 24 2.300781 24.007812 2.300781 C 25.890625 2.304688 27.75 2.5625 29.539062 3.046875 C 24.144531 3.175781 19.074219 5.847656 15.597656 10.386719 C 12.84375 13.652344 11.203125 18.398438 11.089844 23.433594 L 11.089844 24.53125 C 11.203125 29.527344 12.839844 34.265625 15.582031 37.535156 C 19.085938 42.097656 24.15625 44.761719 29.542969 44.890625 C 27.398438 45.472656 25.128906 45.71875 22.898438 45.613281 M 39.792969 6.125 C 35.449219 2.214844 29.847656 0.0546875 23.992188 0.03125 C 23.984375 0.03125 23.933594 0.03125 23.925781 0.03125 C 10.796875 0.03125 0.117188 10.769531 0.117188 23.96875 C 0.117188 36.777344 10.078125 47.28125 22.792969 47.878906 C 23.167969 47.898438 23.546875 47.90625 23.925781 47.90625 C 29.785156 47.90625 35.421875 45.746094 39.785156 41.820312 L 39.792969 41.816406 C 44.839844 37.277344 47.734375 30.769531 47.734375 23.96875 C 47.734375 17.167969 44.839844 10.660156 39.792969 6.125 "/>
<path style=" stroke:none;fill-rule:nonzero;fill:rgb(98.039216%,11.764706%,30.588236%);fill-opacity:1;" d="M 28.289062 8.890625 C 32.535156 11.632812 35.460938 17.367188 35.460938 24 C 35.460938 30.632812 32.535156 36.367188 28.289062 39.109375 C 33.710938 38.660156 38.011719 32.066406 38.011719 24 C 38.011719 15.933594 33.710938 9.339844 28.289062 8.890625 "/>
</g>
</svg>
