<?xml version="1.0" encoding="UTF-8"?>
<svg xmlns="http://www.w3.org/2000/svg" xmlns:xlink="http://www.w3.org/1999/xlink" width="48px" height="48px" viewBox="0 0 48 48" version="1.1">
<defs>
<linearGradient id="linear0" gradientUnits="userSpaceOnUse" x1="128" y1="0.000000012049" x2="128" y2="256" gradientTransform="matrix(0.1875,0,0,0.1875,0.00000469208,0.000000915527)">
<stop offset="0.0000001" style="stop-color:rgb(96.078431%,96.078431%,96.470588%);stop-opacity:1;"/>
<stop offset="1" style="stop-color:rgb(92.941176%,92.941176%,93.333333%);stop-opacity:1;"/>
</linearGradient>
</defs>
<g id="surface1">
<path style=" stroke:none;fill-rule:evenodd;fill:url(#linear0);" d="M 48 24 C 48 37.253906 37.253906 48 24 48 C 10.746094 48 0 37.253906 0 24 C 0 10.746094 10.746094 0 24 0 C 37.253906 0 48 10.746094 48 24 "/>
<path style=" stroke:none;fill-rule:evenodd;fill:rgb(100%,100%,100%);fill-opacity:1;" d="M 46.835938 24 C 46.835938 36.613281 36.613281 46.835938 24 46.835938 C 11.386719 46.835938 1.164062 36.613281 1.164062 24 C 1.164062 11.386719 11.386719 1.164062 24 1.164062 C 36.613281 1.164062 46.835938 11.386719 46.835938 24 "/>
<path style=" stroke:none;fill-rule:evenodd;fill:rgb(92.54902%,10.980392%,14.117648%);fill-opacity:1;" d="M 39.449219 14.101562 L 26.605469 26.664062 L 26.605469 42.28125 C 26.605469 42.5625 25.386719 42.789062 24 42.804688 C 22.667969 42.789062 21.394531 42.5625 21.394531 42.28125 L 21.394531 26.664062 L 8.550781 14.101562 C 8.34375 13.894531 9 12.917969 10.011719 11.90625 C 11.023438 10.894531 12.019531 10.238281 12.207031 10.445312 L 23.980469 21.9375 L 35.757812 10.445312 C 35.960938 10.238281 36.9375 10.894531 37.949219 11.90625 C 38.960938 12.917969 39.636719 13.894531 39.449219 14.101562 "/>
</g>
</svg>
