<svg width="14" height="14" viewBox="0 0 14 14" fill="none" xmlns="http://www.w3.org/2000/svg">
<g id="skip">
<path id="left" d="M7.40024 5.80497C8.19992 6.37347 8.19992 7.62653 7.40024 8.19503L3.09398 11.2564C2.19891 11.8927 1 11.2085 1 10.0613L1 3.93866C1 2.79154 2.19891 2.10732 3.09398 2.74363L7.40024 5.80497Z" fill="white"/>
<path id="right" fill-rule="evenodd" clip-rule="evenodd" d="M8.68885 8.3791C9.87768 7.6211 9.87768 5.95035 8.68885 5.19235L6.14287 3.56903C6.33499 2.66435 7.37585 2.18408 8.17226 2.73203L12.4098 5.64759C13.1967 6.18902 13.1967 7.38241 12.4098 7.92384L8.17226 10.8394C7.37585 11.3873 6.335 10.9071 6.14287 10.0024L8.68885 8.3791Z" fill="white"/>
</g>
</svg>
